<?xml version="1.0" encoding="utf-8"?>
<!-- Generator: Adobe Illustrator 19.0.0, SVG Export Plug-In . SVG Version: 6.00 Build 0)  -->
<svg version="1.1" id="Layer_1" xmlns:sketch="http://www.bohemiancoding.com/sketch/ns"
	 xmlns="http://www.w3.org/2000/svg" xmlns:xlink="http://www.w3.org/1999/xlink" x="0px" y="0px" viewBox="-201 373 209 48"
	 style="enable-background:new -201 373 209 48;" xml:space="preserve">
<style type="text/css">
	.st0{fill:#77439E;}
</style>
<title>logo-splash</title>
<desc>Created with Sketch.</desc>
<g id="Mockups" sketch:type="MSPage">
	<g id="splash-screen" transform="translate(-75.000000, -291.000000)" sketch:type="MSArtboardGroup">
		<g id="logo-splash" transform="translate(75.000000, 291.000000)" sketch:type="MSLayerGroup">
			<path id="Rectangle-2287" sketch:type="MSShapeGroup" class="st0" d="M-181.5,374.9c0.1-1.2,1.1-2,2.3-1.9c1.2,0.1,2,1.1,1.9,2.3
				l-0.5,5.5c-0.1,1.2-1.1,2-2.3,1.9c-1.2-0.1-2-1.1-1.9-2.3L-181.5,374.9z M-190.9,378c-0.5-1.1,0-2.3,1.1-2.8
				c1.1-0.5,2.3,0.1,2.8,1.1l2.2,5.1c0.5,1.1,0,2.3-1.1,2.8c-1.1,0.5-2.3-0.1-2.8-1.1L-190.9,378z M-197.6,385.6
				c-1-0.6-1.4-1.9-0.8-2.9c0.6-1,1.9-1.4,2.9-0.8l4.8,2.8c1,0.6,1.4,1.9,0.8,2.9c-0.6,1-1.9,1.4-2.9,0.8L-197.6,385.6z
				 M-199.2,394.5c-1.2-0.2-2-1.2-1.8-2.4c0.2-1.2,1.2-2,2.4-1.8l5.5,0.8c1.2,0.2,2,1.2,1.8,2.4c-0.2,1.2-1.2,2-2.4,1.8
				L-199.2,394.5z M-195.3,403.6c-1.1,0.4-2.3-0.1-2.8-1.2c-0.4-1.1,0.1-2.3,1.2-2.8l5.2-2c1.1-0.4,2.3,0.1,2.8,1.2
				c0.4,1.1-0.1,2.3-1.2,2.8L-195.3,403.6z"/>
			<path id="SimplePay" sketch:type="MSShapeGroup" class="st0" d="M-166.2,404.5c0-10.3-15.9-7.4-15.9-11.8c0-1.7,1.4-2.8,3.9-2.8
				c2,0,4.2,0.5,6.1,1.6c0.5,0.3,1,0.4,1.5,0.4c1.4,0,2.9-1.1,2.9-2.7c0-0.5-0.2-1-0.5-1.4c-1.5-2-6.3-3.1-9.5-3.1
				c-6.5,0-10.5,3.8-10.5,8.4c0,10.4,15.9,7.1,15.9,11.9c0,1.6-1.6,3.1-4.8,3.1c-2.7,0-5.1-0.9-6.9-2.2c-0.5-0.3-1-0.5-1.6-0.5
				c-1.4,0-2.8,1.2-2.8,2.7c0,0.5,0.2,1,0.5,1.4c1.5,2.3,6.5,3.6,10.5,3.6C-169.8,413.3-166.2,409.5-166.2,404.5L-166.2,404.5z
				 M-159.8,384.4c-1.7,0-3.2,1.4-3.2,3.1s1.5,3.2,3.2,3.2c1.7,0,3.2-1.4,3.2-3.2S-158,384.4-159.8,384.4L-159.8,384.4z
				 M-157.1,410.5v-15.3c0-1.4-1.2-2.6-2.6-2.6c-1.5,0-2.7,1.2-2.7,2.6v15.3c0,1.5,1.2,2.6,2.6,2.6
				C-158.3,413.1-157.1,411.9-157.1,410.5L-157.1,410.5z M-121.7,410.5v-12.1c0-4.1-2.2-6.1-5.9-6.1c-3.1,0-5.7,1.8-6.9,3.6
				c-0.7-2.3-2.6-3.6-5.6-3.6c-3.1,0-5.7,1.9-6.6,3.1v-0.3c0-1.4-1.2-2.6-2.6-2.6c-1.5,0-2.7,1.2-2.7,2.6v15.3
				c0,1.5,1.2,2.6,2.6,2.6c1.5,0,2.7-1.2,2.7-2.6v-11.1c0.8-1.1,2.3-2.4,4.1-2.4c2.2,0,3,1.3,3,3.2v10.3c0,1.5,1.2,2.6,2.6,2.6
				c1.5,0,2.7-1.2,2.7-2.6v-11.2c0.7-1.1,2.3-2.3,4.1-2.3c2.2,0,3,1.3,3,3.2v10.3c0,1.5,1.2,2.6,2.6,2.6
				C-122.9,413.1-121.7,411.9-121.7,410.5L-121.7,410.5z M-96.2,402.8c0-6.7-3.7-10.5-8.9-10.5c-2.4,0-4.6,1.1-6.2,3v-0.2
				c0-1.4-1.2-2.6-2.6-2.6c-1.5,0-2.7,1.2-2.7,2.6v23c0,1.4,1.2,2.6,2.6,2.6c1.5,0,2.7-1.2,2.7-2.6v-7.9c1.6,2.1,3.8,3.1,6.2,3.1
				C-100,413.3-96.2,409.5-96.2,402.8L-96.2,402.8z M-101.7,402.8c0,3.5-2,5.8-5.1,5.8c-1.7,0-3.6-1-4.5-2.3v-7.1
				c0.9-1.3,2.8-2.3,4.5-2.3C-103.7,397-101.7,399.4-101.7,402.8L-101.7,402.8z M-87.1,410.5v-23c0-1.4-1.2-2.6-2.6-2.6
				c-1.5,0-2.7,1.2-2.7,2.6v23c0,1.5,1.2,2.6,2.6,2.6C-88.3,413.1-87.1,411.9-87.1,410.5L-87.1,410.5z M-62.8,402.1
				c0-1-0.3-2.1-0.6-3c-1.4-4.1-4.9-6.8-9.4-6.8c-6.1,0-10.4,4.7-10.4,10.5c0,6.4,4.6,10.5,10.7,10.5c2.7,0,7.8-1,7.8-3.3
				c0-1.2-1.1-2.1-2.2-2.1c-0.3,0-0.7,0.1-1,0.2c-1.2,0.7-2.8,1-3.9,1c-3.4,0-5.4-2.1-5.8-4.6h12.4
				C-63.9,404.5-62.8,403.4-62.8,402.1L-62.8,402.1z M-67.9,400.9h-9.9c0.2-2,1.7-4.4,4.9-4.4C-69.3,396.5-68,399-67.9,400.9
				L-67.9,400.9z M-36.6,394.1c0-4.9-3.3-8.9-9.3-8.9h-9.6c-1.8,0-3.3,1.5-3.3,3.3v21.7c0,1.6,1.3,2.9,2.9,2.9c1.7,0,3-1.3,3-2.9
				V403h7.1C-39.9,403-36.6,398.9-36.6,394.1L-36.6,394.1z M-42.6,394.1c0,2.3-1.7,3.7-4.1,3.7h-6.3v-7.5h6.3
				C-44.3,390.4-42.6,391.8-42.6,394.1L-42.6,394.1z M-15.8,410.5v-10.6c0-5.8-4.2-7.6-8.8-7.6c-2.3,0-6.8,0.8-8,2.8
				c-0.2,0.3-0.3,0.7-0.3,1c0,1.2,1,2,2,2c0.3,0,0.7-0.1,1-0.3c1.4-0.9,2.9-1.3,4.5-1.3c2.7,0,4.4,1.3,4.4,3.4v2.7
				c-1.3-1.6-3.7-2.4-6.3-2.4c-3.2,0-7,1.8-7,6.5c0,4.5,3.8,6.6,7,6.6c2.6,0,5-1,6.3-2.6c0,2,1.9,2.3,2.3,2.3h0.4
				C-16.9,413.1-15.8,411.9-15.8,410.5L-15.8,410.5z M-21,408c-0.9,1.2-2.5,1.7-4.2,1.7c-2.1,0-3.8-1.1-3.8-2.9c0-1.9,1.7-3,3.8-3
				c1.7,0,3.4,0.6,4.2,1.7V408z M7.2,395.1c0-1.3-1-2.6-2.6-2.6c-1.1,0-2.2,0.7-2.5,1.7l-4.6,12.4l-4.6-12.4
				c-0.4-1.1-1.4-1.7-2.4-1.7c-1.6,0-2.7,1.3-2.7,2.6c0,0.3,0,0.6,0.2,0.9l6.8,17.1l-0.7,1.7c-0.4,0.8-1.1,1.2-2,1.4
				c-0.2,0-0.5,0-0.7,0c-1.5,0-2.5,1.1-2.5,2.3c0,1.5,1.4,2.4,3.2,2.4c2.9,0,5.5-1.4,6.9-4.9l8.1-20C7.2,395.8,7.2,395.5,7.2,395.1
				L7.2,395.1z"/>
		</g>
	</g>
</g>
</svg>
