<?xml version="1.0" encoding="UTF-8" standalone="no"?>
<svg width="22px" height="26px" viewBox="0 0 22 26" version="1.1" xmlns="http://www.w3.org/2000/svg" xmlns:xlink="http://www.w3.org/1999/xlink" xmlns:sketch="http://www.bohemiancoding.com/sketch/ns">
    <!-- Generator: Sketch 3.3.3 (12072) - http://www.bohemiancoding.com/sketch -->
    <title>ic-simplepay-list</title>
    <desc>Created with Sketch.</desc>
    <defs>
        <filter x="-50%" y="-50%" width="200%" height="200%" filterUnits="objectBoundingBox" id="filter-1">
            <feOffset dx="0" dy="0" in="SourceAlpha" result="shadowOffsetOuter1"></feOffset>
            <feGaussianBlur stdDeviation="0.5" in="shadowOffsetOuter1" result="shadowBlurOuter1"></feGaussianBlur>
            <feColorMatrix values="0 0 0 0 0   0 0 0 0 0   0 0 0 0 0  0 0 0 0.041907269 0" in="shadowBlurOuter1" type="matrix" result="shadowMatrixOuter1"></feColorMatrix>
            <feMerge>
                <feMergeNode in="shadowMatrixOuter1"></feMergeNode>
                <feMergeNode in="SourceGraphic"></feMergeNode>
            </feMerge>
        </filter>
    </defs>
    <g id="Final-Mockups-2.0" stroke="none" stroke-width="1" fill="none" fill-rule="evenodd" sketch:type="MSPage">
        <g id="Screen6--Merchant-Payment-2" sketch:type="MSArtboardGroup" transform="translate(-23.000000, -136.000000)" filter="url(#filter-1)" fill="#B570EB">
            <g id="List-category-Copy-2" sketch:type="MSLayerGroup" transform="translate(0.000000, 120.000000)">
                <g id="Rectangle-128-+-Category" sketch:type="MSShapeGroup">
                    <g id="ic-simplepay-list" transform="translate(15.000000, 15.000000)">
                        <path d="M20.6969267,3.1685216 C20.7585316,2.46437377 21.3743056,1.94305317 22.0832596,2.00507861 C22.7873052,2.06667462 23.3076143,2.69305568 23.2465013,3.39158047 L22.9436182,6.85355005 C22.8820132,7.55769787 22.2662393,8.07901848 21.5572853,8.01699304 C20.8532397,7.95539703 20.3329306,7.32901597 20.3940436,6.63049118 L20.6969267,3.1685216 Z M15.0154028,5.03233444 C14.7392194,4.38168704 15.0381703,3.63229992 15.6932587,3.35423137 C16.3438117,3.07808804 17.0972854,3.38687937 17.3712633,4.03233097 L18.7291297,7.23126368 C19.0053132,7.88191108 18.7063623,8.63129819 18.0512738,8.90936675 C17.4007209,9.18551008 16.6472471,8.87671875 16.3732692,8.23126714 L15.0154028,5.03233444 Z M10.973975,9.7335056 C10.3618357,9.38008682 10.1495961,8.60168652 10.5054272,7.98536903 C10.8587946,7.37331863 11.6463808,7.16647854 12.2536318,7.51707506 L15.2632378,9.25467193 C15.8753771,9.60809071 16.0876167,10.386491 15.7317857,11.0028085 C15.3784182,11.6148589 14.5908321,11.821699 13.9835811,11.4711025 L10.973975,9.7335056 Z M10.0254796,15.1749433 C9.32552095,15.0765705 8.83714191,14.4343567 8.93618614,13.7296204 C9.03454463,13.0297634 9.68729813,12.5429496 10.3816672,12.6405368 L13.8230406,13.1241903 C14.5229993,13.2225631 15.0113783,13.8647769 14.9123341,14.5695132 C14.8139756,15.2693703 14.1612221,15.756184 13.466853,15.6585968 L10.0254796,15.1749433 Z M12.3815602,20.7948315 C11.7216705,21.0481395 10.9831731,20.7232174 10.7281362,20.0588236 C10.4748651,19.3990297 10.8097642,18.6567916 11.4643843,18.4055065 L14.7087571,17.1601085 C15.3686468,16.9068005 16.1071442,17.2317225 16.3621811,17.8961164 C16.6154523,18.5559103 16.2805532,19.2981484 15.6259331,19.5494335 L12.3815602,20.7948315 Z M29,20.6865477 C29,14.5040729 19.589916,16.2669472 19.589916,13.6350503 C19.589916,12.6418816 20.4252759,11.9714928 21.9240099,11.9714928 C23.127911,11.9714928 24.4055203,12.2694434 25.5357132,12.915003 C25.8305461,13.0888075 26.125379,13.1632952 26.420212,13.1632952 C27.2555719,13.1632952 28.1646401,12.5177356 28.1646401,11.5742253 C28.1646401,11.2762747 28.0663624,10.9783241 27.8698071,10.730032 C26.960739,9.51340038 24.1106874,8.89266997 22.2434123,8.89266997 C18.3860149,8.89266997 16.0273516,11.1769579 16.0273516,13.9330009 C16.0273516,20.1651342 25.462005,18.1539676 25.462005,21.0838152 C25.462005,22.0273254 24.5283674,22.9211772 22.6119534,22.9211772 C21.0149418,22.9211772 19.6144854,22.3997636 18.508862,21.6300579 C18.2385985,21.4314242 17.8946267,21.3569366 17.5752244,21.3569366 C16.7398644,21.3569366 15.9290739,22.0521546 15.9290739,22.9956648 C15.9290739,23.2936154 16.0273516,23.591566 16.1993374,23.8398582 C17.1084056,25.2054651 20.0567348,26 22.4399676,26 C26.8624613,26 29,23.7157121 29,20.6865477 Z" id="Rectangle-2287"></path>
                    </g>
                </g>
            </g>
        </g>
    </g>
</svg>